<svg xmlns="http://www.w3.org/2000/svg" xmlns:xlink="http://www.w3.org/1999/xlink" id="crocodile" width="312" height="300" x="0" y="0" enable-background="new 0 0 260 250" version="1.1" viewBox="0 0 260 250" xml:space="preserve"><g><path id="symbol" fill="#848383" d="M185.631,140.915l5.02,10.86l8.145-3.765 l-5.02-10.86L185.631,140.915z M246.828,109.341l-47.613,25.306l5.02,10.86l50.123-19.876L246.828,109.341z" enable-background="new" opacity=".2"/><g id="head"><polygon fill="#09B39C" points="44.613 146.703 26.665 140.721 8.718 146.703 -.252 146.703 -.252 206.523 44.613 206.523 119.387 206.523 119.387 167.64"/><polygon fill="#FFF" points="-.252 146.703 11.712 170.631 26.667 140.721 8.721 146.703" enable-background="new" opacity=".2"/><polyline fill="#FFF" points="8.718 146.703 20.685 152.685 26.665 140.721" enable-background="new" opacity=".2"/><polygon fill="#FFF" points="44.613 146.703 53.613 163.667 17.694 143.712 26.667 140.721" enable-background="new" opacity=".2"/></g><g id="upper-head"><g id="upper-jaw"><g><path id="upper-teeth" fill="#E0CAB1" d="M151.174,129.382l14.913,6.086l-6.602-14.691L151.174,129.382z M138.707,142.292 l14.914,6.086l-6.603-14.692L138.707,142.292z M126.241,155.201l14.913,6.086l-6.602-14.692L126.241,155.201z M163.64,116.474 l14.913,6.085l-6.603-14.692L163.64,116.474z M176.106,103.564l14.913,6.086l-6.602-14.692L176.106,103.564z M188.572,90.655 l14.914,6.085l-6.602-14.691L188.572,90.655z M201.039,77.746l14.913,6.085L209.35,69.14L201.039,77.746z M221.816,56.23 l-8.311,8.607l14.913,6.085L221.816,56.23z"/><path fill="#FFF" d="M155.329,125.08l10.758,10.388l-6.602-14.691L155.329,125.08 z M142.863,137.989l10.758,10.389l-6.603-14.692L142.863,137.989z M130.396,150.898l10.758,10.389l-6.602-14.692 L130.396,150.898z M167.796,112.171l10.757,10.388l-6.603-14.692L167.796,112.171z M180.261,99.261l10.758,10.389l-6.602-14.692 L180.261,99.261z M192.728,86.352l10.758,10.388l-6.602-14.691L192.728,86.352z M205.195,73.443l10.757,10.388L209.35,69.14 L205.195,73.443z M221.816,56.23l-4.156,4.303l10.758,10.389L221.816,56.23z" enable-background="new" opacity=".4"/></g><polygon fill="#09B39C" points="215.135 33 200.18 33 197.189 46.955 92 125 88.355 171.706 106.387 180.64 236.072 47.955"/><polygon fill="#FFF" points="92 125 97.423 150.703 197.189 46.955" enable-background="new" opacity=".2"/><line x1="197.189" x2="92" y1="46.955" y2="125" fill="#FFF" enable-background="new" opacity=".2"/><polygon fill="#FFF" points="200.18 33 236.072 47.955 215.135 33" enable-background="new" opacity=".2"/><polygon fill="#FFF" points="197.189 46.955 215.135 33 200.18 33" enable-background="new" opacity=".2"/></g><polygon fill="#09B39C" points="92 125 65.55 126.757 44.613 146.703 44.613 176.523 119.387 176.523 119.387 167.64 107.897 156.377"/><polygon fill="#FFF" points="92 125 102.423 145.703 65.55 126.757" enable-background="new" opacity=".2"/><polygon fill="#FFF" points="44.613 146.703 102.423 145.703 92 125 65.55 126.757" enable-background="new" opacity=".2"/><polygon id="eye_1_" fill="#FFF" points="71.532 145.703 83.495 139.721 95.459 145.703 80.505 154.676"/><polygon fill="#FFF" points="44.613 146.703 44.613 158.667 92 125 65.55 126.757" enable-background="new" opacity=".2"/></g><g id="bottom-jaw"><g><polygon fill="#E0CAB1" points="152.531 185.586 158.513 170.631 164.495 185.586"/><polygon fill="#FFF" points="164.495 185.586 158.513 170.631 158.513 185.586" enable-background="new" opacity=".4"/></g><g><polygon fill="#E0CAB1" points="170.477 185.586 176.459 170.631 182.441 185.586"/><polygon fill="#FFF" points="182.441 185.586 176.459 170.631 176.459 185.586" enable-background="new" opacity=".4"/></g><g><polygon fill="#E0CAB1" points="188.423 185.586 194.405 170.631 200.387 185.586"/><polygon fill="#FFF" points="200.387 185.586 194.405 170.631 194.405 185.586" enable-background="new" opacity=".4"/></g><g><polygon fill="#E0CAB1" points="206.369 185.586 212.351 170.631 218.333 185.586"/><polygon fill="#FFF" points="218.333 185.586 212.351 170.631 212.351 185.586" enable-background="new" opacity=".4"/></g><g><polygon fill="#E0CAB1" points="224.315 185.586 230.297 170.631 236.279 185.586"/><polygon fill="#FFF" points="236.279 185.586 230.297 170.631 230.297 185.586" enable-background="new" opacity=".4"/></g><polygon fill="#E0CAB1" points="148.54 179.604 119.596 167.64 109.657 167.64 103.675 167.64 91.711 167.64 79.747 179.604 0 200.541 0 206.523 79.747 206.523 156.522 206.523 187.432 198.55 235.288 189.577 244.252 179.604"/><polygon fill="#FFF" points="119.594 167.64 91.711 167.64 79.747 179.604" enable-background="new" opacity=".3"/><polygon fill="#FFF" points="91.711 167.64 79.747 206.523 79.747 179.604" enable-background="new" opacity=".3"/><polygon fill="#534741" points="235.288 189.577 160.513 195.559 115.639 206.523 156.522 206.523 187.432 198.55" enable-background="new" opacity=".1"/><polygon fill="#534741" points="187.432 198.55 160.513 195.559 156.522 206.523 156.522 206.523" enable-background="new" opacity=".1"/><polygon fill="#FFF" points="0 200.541 46.847 194.559 79.747 179.604" enable-background="new" opacity=".3"/></g></g></svg>